<svg id="Layer_1" data-name="Layer 1" xmlns="http://www.w3.org/2000/svg" viewBox="0 0 20 20"><defs><style>.cls-1{fill:#d2c7b3;}.cls-2{fill:#282827;}</style></defs><title>ai file</title><rect class="cls-1" width="20" height="20"/><path class="cls-1" d="M17.2,12.08a7.2,7.2,0,0,1-14.4,0c0-.18,0-.35,0-.53h0V.72H10V4.88A7.2,7.2,0,0,1,17.2,12.08Z"/><path class="cls-2" d="M10,4.88V.72H2.8V11.55h0c0,.18,0,.35,0,.53A7.2,7.2,0,1,0,10,4.88Zm0,10a2.79,2.79,0,0,1-2.79-2.79,2.38,2.38,0,0,1,0-.53A2.79,2.79,0,1,1,10,14.87Z"/><ellipse class="cls-1" cx="4.02" cy="1.91" rx="0.7" ry="0.7" transform="translate(-0.26 0.7) rotate(-9.69)"/><polygon class="cls-1" points="6.37 10.73 5.81 11.29 4.93 10.4 5.07 10.27 3.93 9.13 3.92 9.13 3.92 4.02 4.22 4.02 4.22 8.94 5.31 10.03 5.48 9.85 6.37 10.73"/></svg>